<?xml version="1.0" encoding="UTF-8" standalone="no"?>
<!-- Created with Inkscape (http://www.inkscape.org/) -->

<svg
   xmlns:dc="http://purl.org/dc/elements/1.1/"
   xmlns:cc="http://creativecommons.org/ns#"
   xmlns:rdf="http://www.w3.org/1999/02/22-rdf-syntax-ns#"
   xmlns:svg="http://www.w3.org/2000/svg"
   xmlns="http://www.w3.org/2000/svg"
   xmlns:sodipodi="http://sodipodi.sourceforge.net/DTD/sodipodi-0.dtd"
   xmlns:inkscape="http://www.inkscape.org/namespaces/inkscape"
   width="128"
   height="128"
   id="svg2"
   sodipodi:version="0.32"
   inkscape:version="0.47 r22583"
   version="1.0"
   inkscape:export-filename="/home/marc/Projects/aptanaWorkspace/TrichromeGWT/icons/trichrome_128.png"
   inkscape:export-xdpi="90"
   inkscape:export-ydpi="90"
   sodipodi:docname="logo2.svg"
   inkscape:output_extension="org.inkscape.output.svg.inkscape">
  <defs
     id="defs4">
    <inkscape:perspective
       sodipodi:type="inkscape:persp3d"
       inkscape:vp_x="0 : 526.18109 : 1"
       inkscape:vp_y="0 : 1000 : 0"
       inkscape:vp_z="744.09448 : 526.18109 : 1"
       inkscape:persp3d-origin="372.04724 : 350.78739 : 1"
       id="perspective10" />
  </defs>
  <sodipodi:namedview
     id="base"
     pagecolor="#ffffff"
     bordercolor="#666666"
     borderopacity="1.0"
     gridtolerance="10000"
     guidetolerance="10"
     objecttolerance="10"
     inkscape:pageopacity="0.0"
     inkscape:pageshadow="2"
     inkscape:zoom="2.8"
     inkscape:cx="67.451156"
     inkscape:cy="37.673935"
     inkscape:document-units="px"
     inkscape:current-layer="g2396"
     showgrid="false"
     inkscape:window-width="1041"
     inkscape:window-height="880"
     inkscape:window-x="755"
     inkscape:window-y="57"
     inkscape:window-maximized="0" />
  <metadata
     id="metadata7">
    <rdf:RDF>
      <cc:Work
         rdf:about="">
        <dc:format>image/svg+xml</dc:format>
        <dc:type
           rdf:resource="http://purl.org/dc/dcmitype/StillImage" />
        <dc:title></dc:title>
      </cc:Work>
    </rdf:RDF>
  </metadata>
  <g
     inkscape:label="Layer 1"
     inkscape:groupmode="layer"
     id="layer1">
    <g
       id="g2396"
       transform="matrix(0.2870948,0,0,0.2870948,-32.381828,-19.52553)">
      <path
         inkscape:export-ydpi="90"
         inkscape:export-xdpi="90"
         inkscape:export-filename="C:\Documents and Settings\HP_Omistaja\My Documents\Aptana Studio Workspace\Trichrome\icons\achrome.png"
         style="fill:#ffd42a;fill-opacity:1;stroke:none;stroke-width:1;stroke-linecap:round;stroke-linejoin:miter;stroke-miterlimit:4;stroke-dashoffset:0;stroke-opacity:1"
         d="M 506.62148,290.93362 C 506.62148,377.67648 408.69281,448.07647 321.94996,448.07647 C 235.20711,448.07647 164.80711,377.67648 164.80711,290.93362 C 164.80711,204.19077 235.20711,133.79077 321.94996,133.79077 C 408.69281,133.79077 506.62148,204.19077 506.62148,290.93362 z"
         id="path2386"
         sodipodi:nodetypes="csssc" />
      <path
         inkscape:export-ydpi="90"
         inkscape:export-xdpi="90"
         inkscape:export-filename="C:\Documents and Settings\HP_Omistaja\My Documents\Aptana Studio Workspace\Trichrome\icons\achrome.png"
         sodipodi:nodetypes="csssc"
         id="path2388"
         d="M 456.90302,290.93362 C 456.90302,352.44219 387.4627,402.36218 325.95413,402.36218 C 264.44557,402.36218 214.52557,352.44219 214.52557,290.93362 C 214.52557,229.42505 264.44557,179.50506 325.95413,179.50506 C 387.4627,179.50506 456.90302,229.42505 456.90302,290.93362 z"
         style="fill:#ff0066;fill-opacity:1;stroke:none;stroke-width:1;stroke-linecap:round;stroke-linejoin:miter;stroke-miterlimit:4;stroke-dashoffset:0;stroke-opacity:1" />
      <path
         style="fill:#808000;fill-opacity:1;stroke:none;stroke-width:1;stroke-linecap:round;stroke-linejoin:miter;stroke-miterlimit:4;stroke-dashoffset:0;stroke-opacity:1"
         d="M 59.09375,7.8125 C 28.07767,7.8125 2.875,32.98392 2.875,64 c 0,31.016083 25.20267,56.1875 56.21875,56.1875 C 90.10983,120.1875 125.125,95.016083 125.125,64 125.125,32.98392 90.10983,7.8125 59.09375,7.8125 z M 60.0625,18.875 c 24.903421,0 36.214286,20.221579 36.214286,45.125 0,24.903424 -11.310865,45.125 -36.214286,45.125 -24.903421,0 -45.125,-20.221576 -45.125,-45.125 0,-24.903421 20.221579,-45.125 45.125,-45.125 z"
         transform="matrix(3.48317,0,0,3.48317,112.79141,68.010741)"
         id="path2383"
         sodipodi:nodetypes="cssscccssc" />
    </g>
  </g>
</svg>
